<mxfile host="Electron" modified="2023-09-19T20:38:32.126Z" agent="Mozilla/5.0 (Macintosh; Intel Mac OS X 10_15_7) AppleWebKit/537.36 (KHTML, like Gecko) draw.io/21.6.8 Chrome/114.0.5735.289 Electron/25.5.0 Safari/537.36" etag="y-vOh7A6tnGt89myI3ZK" version="21.6.8" type="device">
  <diagram id="ZGsqVFqlMtBjAnkGU3Om" name="Page-1">
    <mxGraphModel dx="1890" dy="796" grid="1" gridSize="10" guides="1" tooltips="1" connect="1" arrows="1" fold="1" page="1" pageScale="1" pageWidth="827" pageHeight="1169" math="0" shadow="0">
      <root>
        <mxCell id="0" />
        <mxCell id="1" parent="0" />
        <mxCell id="S4Y8JMquZLXTr6qlEGW4-5" value="" style="rounded=1;whiteSpace=wrap;html=1;align=left;fillColor=#f0f6ff;strokeColor=#f0f6ff;verticalAlign=middle;labelPosition=right;verticalLabelPosition=middle;" parent="1" vertex="1">
          <mxGeometry x="20" y="60" width="540" height="490" as="geometry" />
        </mxCell>
        <mxCell id="S4Y8JMquZLXTr6qlEGW4-6" value="&lt;font style=&quot;font-size: 15px;&quot;&gt;&lt;b&gt;Kyma Control Plane&lt;/b&gt;&lt;/font&gt;" style="text;html=1;strokeColor=none;fillColor=none;align=center;verticalAlign=middle;whiteSpace=wrap;rounded=0;fontSize=19;labelPosition=center;verticalLabelPosition=middle;" parent="1" vertex="1">
          <mxGeometry x="200" y="70" width="180" height="30" as="geometry" />
        </mxCell>
        <mxCell id="-fF3yJ7clYEyhTMX5PpK-15" style="edgeStyle=orthogonalEdgeStyle;rounded=1;orthogonalLoop=1;jettySize=auto;html=1;entryX=0;entryY=0.5;entryDx=0;entryDy=0;strokeColor=#666666;" parent="1" source="-fF3yJ7clYEyhTMX5PpK-2" target="-fF3yJ7clYEyhTMX5PpK-4" edge="1">
          <mxGeometry relative="1" as="geometry">
            <Array as="points">
              <mxPoint x="110" y="160" />
            </Array>
          </mxGeometry>
        </mxCell>
        <mxCell id="-fF3yJ7clYEyhTMX5PpK-19" value="&lt;font style=&quot;font-size: 12px; background-color: rgb(240, 246, 255);&quot;&gt;creates GadenerCluster resource&amp;nbsp;&lt;/font&gt;" style="edgeLabel;html=1;align=center;verticalAlign=bottom;resizable=0;points=[];" parent="-fF3yJ7clYEyhTMX5PpK-15" vertex="1" connectable="0">
          <mxGeometry x="0.4127" y="1" relative="1" as="geometry">
            <mxPoint as="offset" />
          </mxGeometry>
        </mxCell>
        <mxCell id="-fF3yJ7clYEyhTMX5PpK-17" style="edgeStyle=orthogonalEdgeStyle;rounded=1;orthogonalLoop=1;jettySize=auto;html=1;entryX=0;entryY=0.5;entryDx=0;entryDy=0;strokeColor=#666666;" parent="1" source="-fF3yJ7clYEyhTMX5PpK-2" target="-fF3yJ7clYEyhTMX5PpK-5" edge="1">
          <mxGeometry relative="1" as="geometry">
            <Array as="points">
              <mxPoint x="110" y="470" />
            </Array>
          </mxGeometry>
        </mxCell>
        <mxCell id="-fF3yJ7clYEyhTMX5PpK-23" value="&lt;font style=&quot;font-size: 12px; background-color: rgb(240, 246, 255);&quot;&gt;creates Kyma resource&lt;/font&gt;" style="edgeLabel;html=1;align=center;verticalAlign=bottom;resizable=0;points=[];" parent="-fF3yJ7clYEyhTMX5PpK-17" vertex="1" connectable="0">
          <mxGeometry x="0.3922" relative="1" as="geometry">
            <mxPoint as="offset" />
          </mxGeometry>
        </mxCell>
        <mxCell id="-fF3yJ7clYEyhTMX5PpK-2" value="&lt;font style=&quot;font-size: 13px;&quot;&gt;Kyma Environment Broker&lt;/font&gt;" style="rounded=1;whiteSpace=wrap;html=1;strokeColor=#666666;" parent="1" vertex="1">
          <mxGeometry x="50" y="290" width="120" height="60" as="geometry" />
        </mxCell>
        <mxCell id="-fF3yJ7clYEyhTMX5PpK-25" style="edgeStyle=orthogonalEdgeStyle;rounded=1;orthogonalLoop=1;jettySize=auto;html=1;entryX=0.5;entryY=0;entryDx=0;entryDy=0;strokeColor=#666666;" parent="1" source="-fF3yJ7clYEyhTMX5PpK-4" target="-fF3yJ7clYEyhTMX5PpK-8" edge="1">
          <mxGeometry relative="1" as="geometry" />
        </mxCell>
        <mxCell id="-fF3yJ7clYEyhTMX5PpK-31" value="&lt;font style=&quot;font-size: 12px;&quot;&gt;provisions Kubernetes cluster&lt;/font&gt;" style="edgeLabel;html=1;align=center;verticalAlign=bottom;resizable=0;points=[];fontSize=12;" parent="-fF3yJ7clYEyhTMX5PpK-25" vertex="1" connectable="0">
          <mxGeometry x="-0.439" y="-1" relative="1" as="geometry">
            <mxPoint x="47" y="-1" as="offset" />
          </mxGeometry>
        </mxCell>
        <mxCell id="wdZQV3GHOSnMl5EQhxus-2" value="" style="edgeStyle=orthogonalEdgeStyle;rounded=1;orthogonalLoop=1;jettySize=auto;html=1;strokeColor=#666666;" parent="1" source="-fF3yJ7clYEyhTMX5PpK-4" target="wdZQV3GHOSnMl5EQhxus-1" edge="1">
          <mxGeometry relative="1" as="geometry" />
        </mxCell>
        <mxCell id="wdZQV3GHOSnMl5EQhxus-3" value="&lt;font style=&quot;font-size: 12px; background-color: rgb(240, 246, 255);&quot;&gt;&amp;nbsp;and&amp;nbsp;&lt;/font&gt;" style="edgeLabel;html=1;align=left;verticalAlign=middle;resizable=0;points=[];fontSize=12;labelPosition=right;verticalLabelPosition=middle;" parent="wdZQV3GHOSnMl5EQhxus-2" vertex="1" connectable="0">
          <mxGeometry x="-0.12" y="4" relative="1" as="geometry">
            <mxPoint x="1" y="6" as="offset" />
          </mxGeometry>
        </mxCell>
        <mxCell id="BS7GfnYDjtM-LsCtWvo2-1" value="&lt;font style=&quot;font-size: 12px; background-color: rgb(240, 246, 255);&quot;&gt;creates&lt;/font&gt;" style="edgeLabel;html=1;align=left;verticalAlign=middle;resizable=0;points=[];labelPosition=right;verticalLabelPosition=middle;" vertex="1" connectable="0" parent="wdZQV3GHOSnMl5EQhxus-2">
          <mxGeometry x="-0.18" y="1" relative="1" as="geometry">
            <mxPoint x="4" y="-11" as="offset" />
          </mxGeometry>
        </mxCell>
        <mxCell id="BS7GfnYDjtM-LsCtWvo2-2" value="&lt;font style=&quot;font-size: 12px; background-color: rgb(240, 246, 255);&quot;&gt;maintains&lt;/font&gt;" style="edgeLabel;html=1;align=left;verticalAlign=middle;resizable=0;points=[];labelPosition=right;verticalLabelPosition=middle;" vertex="1" connectable="0" parent="wdZQV3GHOSnMl5EQhxus-2">
          <mxGeometry x="0.3" relative="1" as="geometry">
            <mxPoint x="5" y="5" as="offset" />
          </mxGeometry>
        </mxCell>
        <mxCell id="-fF3yJ7clYEyhTMX5PpK-4" value="&lt;font style=&quot;font-size: 13px;&quot;&gt;Infrastructure Manager&lt;/font&gt;" style="rounded=1;whiteSpace=wrap;html=1;strokeColor=#666666;" parent="1" vertex="1">
          <mxGeometry x="375" y="130" width="120" height="60" as="geometry" />
        </mxCell>
        <mxCell id="-fF3yJ7clYEyhTMX5PpK-27" style="edgeStyle=orthogonalEdgeStyle;rounded=1;orthogonalLoop=1;jettySize=auto;html=1;entryX=0.5;entryY=1;entryDx=0;entryDy=0;strokeColor=#666666;" parent="1" source="-fF3yJ7clYEyhTMX5PpK-5" target="-fF3yJ7clYEyhTMX5PpK-8" edge="1">
          <mxGeometry relative="1" as="geometry" />
        </mxCell>
        <mxCell id="-fF3yJ7clYEyhTMX5PpK-33" value="&lt;font style=&quot;font-size: 12px;&quot;&gt;manages modules&lt;/font&gt;" style="edgeLabel;html=1;align=center;verticalAlign=bottom;resizable=0;points=[];fontSize=12;" parent="-fF3yJ7clYEyhTMX5PpK-27" vertex="1" connectable="0">
          <mxGeometry x="-0.4453" y="3" relative="1" as="geometry">
            <mxPoint x="21" as="offset" />
          </mxGeometry>
        </mxCell>
        <mxCell id="wdZQV3GHOSnMl5EQhxus-5" value="" style="edgeStyle=orthogonalEdgeStyle;rounded=1;orthogonalLoop=1;jettySize=auto;html=1;strokeColor=#666666;" parent="1" source="-fF3yJ7clYEyhTMX5PpK-5" target="wdZQV3GHOSnMl5EQhxus-1" edge="1">
          <mxGeometry relative="1" as="geometry" />
        </mxCell>
        <mxCell id="wdZQV3GHOSnMl5EQhxus-6" value="&lt;font style=&quot;font-size: 12px; background-color: rgb(240, 246, 255);&quot;&gt;reads&lt;/font&gt;" style="edgeLabel;html=1;align=left;verticalAlign=middle;resizable=0;points=[];labelPosition=right;verticalLabelPosition=middle;" parent="wdZQV3GHOSnMl5EQhxus-5" vertex="1" connectable="0">
          <mxGeometry x="-0.3111" y="2" relative="1" as="geometry">
            <mxPoint x="7" y="-14" as="offset" />
          </mxGeometry>
        </mxCell>
        <mxCell id="-fF3yJ7clYEyhTMX5PpK-5" value="&lt;font style=&quot;font-size: 13px;&quot;&gt;Lifecycle Manager&lt;/font&gt;" style="rounded=1;whiteSpace=wrap;html=1;strokeColor=#666666;" parent="1" vertex="1">
          <mxGeometry x="375" y="440" width="120" height="60" as="geometry" />
        </mxCell>
        <mxCell id="-fF3yJ7clYEyhTMX5PpK-10" value="" style="edgeStyle=orthogonalEdgeStyle;rounded=1;orthogonalLoop=1;jettySize=auto;html=1;strokeColor=#666666;" parent="1" source="-fF3yJ7clYEyhTMX5PpK-7" target="-fF3yJ7clYEyhTMX5PpK-2" edge="1">
          <mxGeometry relative="1" as="geometry" />
        </mxCell>
        <mxCell id="-fF3yJ7clYEyhTMX5PpK-7" value="" style="shape=actor;whiteSpace=wrap;html=1;fillColor=#0a6ec7;strokeColor=#0a6ec7;" parent="1" vertex="1">
          <mxGeometry x="-140" y="290" width="40" height="60" as="geometry" />
        </mxCell>
        <mxCell id="-fF3yJ7clYEyhTMX5PpK-8" value="SAP BTP, &lt;br&gt;Kyma runtime" style="rounded=1;whiteSpace=wrap;html=1;fontSize=13;fillColor=#def2dd;strokeColor=#def2dd;" parent="1" vertex="1">
          <mxGeometry x="660" y="260" width="150" height="120" as="geometry" />
        </mxCell>
        <mxCell id="-fF3yJ7clYEyhTMX5PpK-9" value="&lt;font color=&quot;#ffffff&quot; size=&quot;1&quot;&gt;&lt;b style=&quot;font-size: 14px;&quot;&gt;1&lt;/b&gt;&lt;/font&gt;" style="ellipse;whiteSpace=wrap;html=1;fontSize=12;fillColor=#0a6ec7;strokeColor=#0a6ec7;" parent="1" vertex="1">
          <mxGeometry x="-70" y="330" width="30" height="30" as="geometry" />
        </mxCell>
        <mxCell id="-fF3yJ7clYEyhTMX5PpK-18" value="sends OSB request" style="text;html=1;align=center;verticalAlign=middle;resizable=0;points=[];autosize=1;strokeColor=none;fillColor=none;" parent="1" vertex="1">
          <mxGeometry x="-105" y="298" width="130" height="30" as="geometry" />
        </mxCell>
        <mxCell id="-fF3yJ7clYEyhTMX5PpK-20" value="&lt;font color=&quot;#ffffff&quot; size=&quot;1&quot;&gt;&lt;b style=&quot;font-size: 14px;&quot;&gt;2&lt;/b&gt;&lt;/font&gt;" style="ellipse;whiteSpace=wrap;html=1;fontSize=12;fillColor=#0a6ec7;strokeColor=#0a6ec7;" parent="1" vertex="1">
          <mxGeometry x="240" y="170" width="30" height="30" as="geometry" />
        </mxCell>
        <mxCell id="-fF3yJ7clYEyhTMX5PpK-24" value="&lt;font color=&quot;#ffffff&quot; size=&quot;1&quot;&gt;&lt;b style=&quot;font-size: 14px;&quot;&gt;5&lt;/b&gt;&lt;/font&gt;" style="ellipse;whiteSpace=wrap;html=1;fontSize=12;fillColor=#0a6ec7;strokeColor=#0a6ec7;" parent="1" vertex="1">
          <mxGeometry x="240" y="480" width="30" height="30" as="geometry" />
        </mxCell>
        <mxCell id="-fF3yJ7clYEyhTMX5PpK-28" value="&lt;font color=&quot;#ffffff&quot; size=&quot;1&quot;&gt;&lt;b style=&quot;font-size: 14px;&quot;&gt;3&lt;/b&gt;&lt;/font&gt;" style="ellipse;whiteSpace=wrap;html=1;fontSize=12;fillColor=#0a6ec7;strokeColor=#0a6ec7;" parent="1" vertex="1">
          <mxGeometry x="590" y="170" width="30" height="30" as="geometry" />
        </mxCell>
        <mxCell id="-fF3yJ7clYEyhTMX5PpK-30" value="&lt;font color=&quot;#ffffff&quot; size=&quot;1&quot;&gt;&lt;b style=&quot;font-size: 14px;&quot;&gt;7&lt;/b&gt;&lt;/font&gt;" style="ellipse;whiteSpace=wrap;html=1;fontSize=12;fillColor=#0a6ec7;strokeColor=#0a6ec7;" parent="1" vertex="1">
          <mxGeometry x="590" y="480" width="30" height="30" as="geometry" />
        </mxCell>
        <mxCell id="wdZQV3GHOSnMl5EQhxus-1" value="&lt;span style=&quot;font-size: 13px;&quot;&gt;&amp;nbsp;Secret with kubeconfig&lt;/span&gt;" style="rounded=1;whiteSpace=wrap;html=1;strokeColor=#666666;dashed=1;" parent="1" vertex="1">
          <mxGeometry x="375" y="290" width="120" height="60" as="geometry" />
        </mxCell>
        <mxCell id="wdZQV3GHOSnMl5EQhxus-4" value="&lt;font color=&quot;#ffffff&quot; size=&quot;1&quot;&gt;&lt;b style=&quot;font-size: 14px;&quot;&gt;4&lt;/b&gt;&lt;/font&gt;" style="ellipse;whiteSpace=wrap;html=1;fontSize=12;fillColor=#0a6ec7;strokeColor=#0a6ec7;" parent="1" vertex="1">
          <mxGeometry x="360" y="230" width="30" height="30" as="geometry" />
        </mxCell>
        <mxCell id="wdZQV3GHOSnMl5EQhxus-7" value="&lt;font color=&quot;#ffffff&quot; size=&quot;1&quot;&gt;&lt;b style=&quot;font-size: 14px;&quot;&gt;6&lt;/b&gt;&lt;/font&gt;" style="ellipse;whiteSpace=wrap;html=1;fontSize=12;fillColor=#0a6ec7;strokeColor=#0a6ec7;" parent="1" vertex="1">
          <mxGeometry x="360" y="380" width="30" height="30" as="geometry" />
        </mxCell>
      </root>
    </mxGraphModel>
  </diagram>
</mxfile>
